<?xml version="1.0" encoding="utf-8"?>
<!-- Generator: Adobe Illustrator 18.1.1, SVG Export Plug-In . SVG Version: 6.00 Build 0)  -->
<svg version="1.1" id="Layer_1" xmlns="http://www.w3.org/2000/svg" xmlns:xlink="http://www.w3.org/1999/xlink" x="0px" y="0px"
	 viewBox="0 0 123.8 209.9" enable-background="new 0 0 123.8 209.9" xml:space="preserve">
<g>
	<g>
		<path fill="#8C5843" d="M44.1,34.8c-0.7,0-1.3-0.5-1.4-1.2L38.3,8.2c-0.1-0.8,0.4-1.5,1.2-1.7c0.8-0.1,1.5,0.4,1.7,1.2l4.4,25.5
			c0.1,0.8-0.4,1.5-1.2,1.7C44.2,34.8,44.1,34.8,44.1,34.8z"/>
	</g>
	<g>
		<path fill="#8C5843" d="M72.7,34.8c-0.1,0-0.2,0-0.2,0c-0.8-0.1-1.3-0.9-1.2-1.7l4.4-25.5c0.1-0.8,0.9-1.3,1.7-1.2
			c0.8,0.1,1.3,0.9,1.2,1.7l-4.4,25.5C74,34.3,73.4,34.8,72.7,34.8z"/>
	</g>
	<g>
		<path fill="#B0897E" d="M43.1,194c-1.2-13.3-2.3-22.6-3.3-30.9c-1.7-14.1-3-25.2-3.4-46.3l13.1-0.3c0.5,20.4,1.7,30.8,3.4,45.1
			c1,8.4,2.1,17.8,3.3,31.3L43.1,194z"/>
	</g>
	<g>
		<path fill="#774946" d="M42.9,191.1L42.9,191.1c-0.2-1.7-0.3-3.2-0.4-4.4l0-0.1l13-1.3v0.1c0.1,1.4,0.3,2.9,0.4,4.4l0,0.1
			L42.9,191.1z M41.8,179.6L41.8,179.6c-0.2-1.6-0.4-3-0.5-4.4v-0.1l13-1.4v0.1c0.1,1.3,0.3,2.6,0.4,4l0.1,0.5L41.8,179.6z
			 M40.4,168.1L40.4,168.1c-0.2-1.6-0.3-3-0.5-4.4v-0.1l13-1.5l0.5,4.5L40.4,168.1z M39.1,156.6L39.1,156.6
			c-0.2-1.6-0.3-3.1-0.5-4.4l0-0.1l13-1.4l0,0.1c0.2,1.4,0.3,2.9,0.5,4.3v0.1L39.1,156.6z M37.9,144.9L37.9,144.9
			c-0.2-1.8-0.3-3.2-0.4-4.5v-0.1h0.1l13-1v0.1c0.1,1.3,0.2,2.7,0.4,4.3v0.1L37.9,144.9z M37,133.1L37,133.1c-0.1-1.5-0.2-3-0.2-4.5
			v-0.1h0.1l13-0.6v0.1c0.1,1.6,0.2,3,0.2,4.3l0,0.1H50L37,133.1z M36.5,121.3L36.5,121.3c0-1.7-0.1-3.1-0.1-4.5l0-0.1l13.1-0.3v0.1
			c0,1.6,0.1,3,0.1,4.3v0.1L36.5,121.3z"/>
	</g>
	<g>
		<path fill="#B0897E" d="M5.6,119.2c-4-18.7-1.2-36.7,7.5-48.2c6-7.9,14.5-12.4,24.5-13l0.7,13.1c-6.1,0.4-11.1,3-14.8,7.9
			c-6.4,8.4-8.3,22.5-5.1,37.5L5.6,119.2z"/>
	</g>
	<g>
		<path fill="#774946" d="M4.9,115.4L4.9,115.4c-0.2-1.1-0.3-2.1-0.5-3.2v-0.1l13-1.7v0.1c0.1,0.9,0.2,1.7,0.4,2.6l0,0.1L4.9,115.4z
			 M3.8,104.4L3.8,104.4c0-0.7,0-1.3,0-1.8c0-0.4,0-0.9,0-1.4l0.1-0.1l13,0.3v0.1c0,0.3,0,0.7,0,1.1c0,0.5,0,1,0,1.5v0.1L3.8,104.4z
			 M17.4,95L17.4,95l-13-1.8l0-0.1C4.6,92,4.8,90.9,5,89.8l0-0.1l12.8,2.6l0,0.1C17.7,93.2,17.5,94,17.4,95L17.4,95z M19.5,86.5
			L7.2,81.9l0-0.1c0.4-1.1,0.8-2.1,1.3-3.1l0-0.1l0.1,0l11.8,5.4l0,0.1C20.1,84.9,19.8,85.6,19.5,86.5L19.5,86.5z M23.4,79.2
			l-10.5-7.9l0-0.1c0.7-1,1.5-1.9,2.3-2.7l0,0l0.1,0l9.6,8.8l0,0.1C24.4,77.9,23.9,78.5,23.4,79.2L23.4,79.2z M29,73.9L29,73.9
			l-6.8-11.2l0.1,0c1-0.6,2.1-1.2,3.2-1.7l0.1,0L31,72.9l-0.1,0C30.3,73.2,29.6,73.5,29,73.9L29,73.9z M36.1,71.4l-2-12.9l0.1,0
			c1.1-0.2,2.3-0.3,3.5-0.4h0.1l0.7,13.1l-0.1,0C37.6,71.1,36.9,71.2,36.1,71.4L36.1,71.4z"/>
	</g>
	<g>
		<path fill="#B0897E" d="M85.7,194.7c-2.6-14-5.8-23.1-9-31.9c-4.6-12.8-8.5-23.9-8.6-44.9l13.1,0c0.1,18.7,3.5,28.3,7.8,40.5
			c3.1,8.9,6.7,18.9,9.5,33.9L85.7,194.7z"/>
	</g>
	<g>
		<path fill="#774946" d="M85,191L85,191c-0.3-1.4-0.6-2.8-0.9-4.2l0-0.1l12.8-3l0,0.1c0.3,1.5,0.7,2.9,1,4.4l0,0.1L85,191z
			 M82.4,180.1L82.4,180.1c-0.4-1.4-0.8-2.8-1.2-4.1V176l0,0l12.5-3.8l0,0.1c0.4,1.4,0.9,2.9,1.3,4.3l0,0.1L82.4,180.1z M79.1,169.4
			L79.1,169.4c-0.4-1.3-0.9-2.5-1.4-4.1l0-0.1l12.3-4.4l0,0.1c0.5,1.5,1,2.8,1.4,4.1h0.3L79.1,169.4z M75.3,158.5L75.3,158.5
			c-0.4-1.2-1-2.8-1.5-4.3l0,0l0.1-0.1l12.4-4l0,0.1c0.4,1.2,0.8,2.4,1.3,4h0.3L75.3,158.5z M71.6,146.9L71.6,146.9
			c-0.4-1.6-0.8-3.1-1.1-4.6l0-0.1l12.8-2.7l0,0.1c0.3,1.3,0.6,2.6,0.9,4l0,0.1L71.6,146.9z M69.3,134.7L69.3,134.7
			c-0.2-1.6-0.4-3.1-0.5-4.7V130l13-1.2l0,0.1c0.1,1.4,0.3,2.7,0.5,4.1l0,0.1h-0.1L69.3,134.7z M68.3,122.5L68.3,122.5
			c-0.1-1.5-0.1-3.1-0.1-4.6l0.1-0.1l13-0.1v0.1c0,1.5,0,2.9,0.1,4.2v0.1L68.3,122.5z"/>
	</g>
	<g>
		<path fill="#B0897E" d="M43.3,20.5c-0.6,1.7-0.9,3.5-0.9,5.3v28.7h32V25.9c0-1.9-0.3-3.7-0.9-5.3H43.3z"/>
	</g>
	<g>
		<path fill="#D9A493" d="M73.4,20.6C73.4,20.6,73.4,20.5,73.4,20.6l-30.2,0c0,0,0,0,0,0c-0.9,2.5,1.1,5.1,3.7,5.1h22.7
			C72.4,25.7,74.3,23.1,73.4,20.6z"/>
	</g>
	<g>
		<path fill="#FFD078" d="M66.9,37.9c-3,0-5.5-2.4-5.5-5.5c0-3,2.4-5.5,5.5-5.5c3,0,5.5,2.4,5.5,5.5C72.4,35.4,69.9,37.9,66.9,37.9z
			 M66.9,29.9c-1.4,0-2.5,1.1-2.5,2.5c0,1.4,1.1,2.5,2.5,2.5c1.4,0,2.5-1.1,2.5-2.5C69.4,31,68.3,29.9,66.9,29.9z"/>
	</g>
	<g>
		<path fill="#FFD078" d="M49.6,37.9c-3,0-5.5-2.4-5.5-5.5c0-3,2.4-5.5,5.5-5.5s5.5,2.4,5.5,5.5C55.1,35.4,52.6,37.9,49.6,37.9z
			 M49.6,29.9c-1.4,0-2.5,1.1-2.5,2.5c0,1.4,1.1,2.5,2.5,2.5c1.4,0,2.5-1.1,2.5-2.5C52.2,31,51,29.9,49.6,29.9z"/>
	</g>
	<g>
		<path fill="#774946" d="M8.8,132.8c-3.2-1.7-5.2-5-5.2-8.6c0-5.3,4.3-9.7,9.7-9.7s9.7,4.3,9.7,9.7c0,3.4-1.7,6.4-4.5,8.2l-2.3-3.7
			c1.6-1,2.5-2.7,2.5-4.5c0-2.9-2.4-5.3-5.3-5.3s-5.3,2.4-5.3,5.3c0,2,1.1,3.8,2.9,4.7L8.8,132.8z"/>
	</g>
	<g>
		<path fill="#B0897E" d="M97.6,77.8c-6.7,0-14-2.3-20.5-6.7l7.3-10.8c7.7,5.2,16.3,5.5,19.5,2.6c2.8-2.6,3.2-9.8-4-22.5l11.4-6.4
			c12.9,22.8,6.4,33.9,1.5,38.5C108.9,76,103.5,77.8,97.6,77.8z"/>
	</g>
	<g>
		<path fill="#774946" d="M100.6,77.6l-1.4-13l0.1,0c0.6-0.1,1.3-0.2,1.8-0.3l0.1,0l3.5,12.6l-0.1,0C103.3,77.3,102,77.5,100.6,77.6
			L100.6,77.6z M91.5,77.2L91.5,77.2c-1.2-0.2-2.4-0.5-3.5-0.9l-0.1,0l3.8-12.5l0.1,0c0.7,0.2,1.5,0.4,2.2,0.6l0.1,0L91.5,77.2z
			 M80.1,72.9h-0.2l0.1-0.1c-1-0.5-1.9-1.1-2.8-1.7L77,71.2l0-0.2l7.3-10.8l0.1,0c0.7,0.4,1.3,0.9,2,1.2l0.1,0L80.1,72.9z
			 M113.7,71.5l-9.6-8.9l0-0.1c0.3-0.3,0.5-0.6,0.7-1l0-0.1l11.5,6.2l0,0.1C115.7,69.1,114.8,70.3,113.7,71.5L113.7,71.5z
			 M118.9,57.8l-13.1-0.1v-0.1c0-0.1,0-0.1,0-0.1c0-0.6,0-1.3-0.1-1.9v-0.1l13-1.5V54c0.1,1.2,0.2,2.3,0.2,3.4V57.8z M104.3,49.8
			L104.3,49.8c-0.3-0.8-0.6-1.6-0.9-2.4h-0.3l12.4-5.1l0,0.1c0.4,1,0.8,2.1,1.1,3.1l0,0.1L104.3,49.8z M100.6,41.6L100.6,41.6
			c-0.2-0.5-0.5-0.9-0.7-1.2l0-0.1l0.1,0l11.3-6.4l0,0.1c0.2,0.4,0.5,0.8,0.7,1.4l0,0.1L100.6,41.6z"/>
	</g>
	<g>
		<path fill="#B0897E" d="M36.5,120.9h44.6l2.2-33.3l4.5-1.4l1-14.6c0.5-8-5.8-14.7-13.8-14.7H41.4c-8.1,0-14.4,6.9-13.7,15L28.9,86
			l4.7,2.2L36.5,120.9z"/>
	</g>
	<g>
		<path fill="#D9A493" d="M75.8,65c5.1,0,5.6-7.7,0.5-8.1c-0.4,0-0.8-0.1-1.2-0.1H41.4c-0.4,0-0.8,0-1.2,0.1
			c-5.1,0.4-4.6,8.1,0.5,8.1H75.8z"/>
	</g>
	<g>
		<polygon fill="#774946" points="29,86 33.6,88.2 36.5,120.9 81.1,120.9 83.4,87.5 87.9,86.2 87.9,86 		"/>
	</g>
	<g>
		<path fill="#774946" d="M103,41.9c-0.7,0-1.5-0.1-2.2-0.3c-2.5-0.6-4.7-2.1-6-4.3c-1.9-3.1-2-7-0.1-10.1l3.7,2.2
			c-1,1.7-1,3.8,0,5.5c0.8,1.2,1.9,2.1,3.3,2.4c1.4,0.3,2.8,0.1,4-0.7c1.2-0.8,2.1-1.9,2.4-3.3c0.3-1.4,0.1-2.8-0.7-4
			c-1-1.6-2.7-2.5-4.5-2.5l0-4.4c3.4,0,6.4,1.7,8.2,4.6c1.4,2.2,1.8,4.8,1.2,7.3c-0.6,2.5-2.1,4.7-4.3,6
			C106.5,41.4,104.8,41.9,103,41.9z"/>
	</g>
	<g>
		<path fill="#774946" d="M66.5,203.5h-8.7c0-4.8-4.2-8-8.1-8c-3.9,0-8.1,2.8-8.1,8h-8.7c0-9.4,7.4-16.7,16.8-16.7
			C58.9,186.7,66.5,194.2,66.5,203.5z"/>
	</g>
	<g>
		<rect x="45.3" y="191.1" fill="#774946" width="8.7" height="12.4"/>
	</g>
	<g>
		<path fill="#774946" d="M111.6,203.5h-8.7c0-4.8-4.2-8-8.1-8c-3.9,0-8.1,2.8-8.1,8h-8.7c0-9.4,7.4-16.7,16.8-16.7
			C104,186.7,111.6,194.2,111.6,203.5z"/>
	</g>
	<g>
		<rect x="90.4" y="191.1" fill="#774946" width="8.7" height="12.4"/>
	</g>
	<g>
		<path fill="#F68E59" d="M62.9,104.4c-0.8,0-1.5-0.7-1.5-1.5V88.9c0-0.8,0.7-1.5,1.5-1.5c0.8,0,1.5,0.7,1.5,1.5v14.1
			C64.4,103.7,63.7,104.4,62.9,104.4z"/>
	</g>
	<g>
		<path fill="#F68E59" d="M58.4,104.4c-0.8,0-1.5-0.7-1.5-1.5V88.9c0-0.8,0.7-1.5,1.5-1.5c0.8,0,1.5,0.7,1.5,1.5v14.1
			C59.8,103.7,59.2,104.4,58.4,104.4z"/>
	</g>
	<g>
		<path fill="#F68E59" d="M53.8,104.4c-0.8,0-1.5-0.7-1.5-1.5V88.9c0-0.8,0.7-1.5,1.5-1.5c0.8,0,1.5,0.7,1.5,1.5v14.1
			C55.3,103.7,54.6,104.4,53.8,104.4z"/>
	</g>
	<g>
		<path fill="#FFFFFF" d="M88.9,79.8H73.3l-0.4-0.4c-4.8-4.7-9.6-7.1-14.2-7c-4.4,0.1-8.8,2.4-13.2,7l-0.4,0.4h-16
			c-0.8,0-1.5-0.7-1.5-1.5c0-0.8,0.7-1.5,1.5-1.5h14.7c4.8-4.8,9.8-7.3,14.8-7.4c5.2-0.1,10.5,2.4,15.8,7.4h14.4
			c0.8,0,1.5,0.7,1.5,1.5C90.4,79.2,89.7,79.8,88.9,79.8z"/>
	</g>
	<g>
		<path fill="#FDC078" d="M64.4,50.7H51.3c-1.5,0-2.8-1.3-2.8-2.8v-3.6c0-1.5,1.3-2.8,2.8-2.8h13.1c1.5,0,2.8,1.3,2.8,2.8v3.6
			C67.2,49.5,66,50.7,64.4,50.7z M51.4,47.8h12.9v-3.4H51.4V47.8z"/>
	</g>
	<g>
		<rect x="53.9" y="43" fill="#FDC078" width="2.9" height="6.2"/>
	</g>
	<g>
		<rect x="59" y="43" fill="#FDC078" width="2.9" height="6.2"/>
	</g>
</g>
</svg>
