<?xml version="1.0" encoding="utf-8"?>
<!-- Generator: Adobe Illustrator 18.1.1, SVG Export Plug-In . SVG Version: 6.00 Build 0)  -->
<svg version="1.1" id="Layer_1" xmlns="http://www.w3.org/2000/svg" xmlns:xlink="http://www.w3.org/1999/xlink" x="0px" y="0px"
	 viewBox="0 0 96.8 209.9" enable-background="new 0 0 96.8 209.9" xml:space="preserve">
<g>
	<g>
		<g>
			<path fill="#616164" d="M29.2,194.7L29.2,194.7c-0.1-0.6-0.3-1.2-0.4-1.7l0-0.1l8.2-1.7l0.1,0.4c0.1,0.4,0.2,0.8,0.3,1.2l0,0.1
				L29.2,194.7z M28.3,190.3L28.3,190.3c-0.8-4.3-1.5-8.6-2-12.8h0.1v-0.1l8.3-1l0,0.1c0.5,4,1.1,8.1,1.9,12.2l0,0.1l-0.1,0
				L28.3,190.3z M26,174.7L26,174.7c-0.5-4.3-0.8-8.7-1-12.9v-0.1h0.1l8.3-0.3v0.1c0.2,4.1,0.4,8.2,0.9,12.3v0.1L26,174.7z
				 M24.9,159L24.9,159c0-1.4,0-2.8,0-4.2c0-2.9,0.1-5.8,0.2-8.7l0-0.1h0.1l8.3,0.4v0.1c-0.1,2.8-0.2,5.6-0.2,8.3c0,1.3,0,2.7,0,4
				v0.1L24.9,159z M33.6,143.8L33.6,143.8l-8.4-0.6c0.3-4.3,0.7-8.6,1.2-12.8l0-0.1l8.3,1.1l0,0.1C34.3,135.6,33.9,139.7,33.6,143.8
				L33.6,143.8z M35.2,128.9l-8.3-1.2l0-0.1c0.6-4.2,1.4-8.4,2.3-12.7l0-0.1l8.2,1.8l0,0.1C36.5,120.7,35.8,124.8,35.2,128.9
				L35.2,128.9z"/>
		</g>
	</g>
	<g>
		<g>
			<path fill="#616164" d="M6.8,134.2L6.8,134.2c-0.7-3.3-1.3-6.5-1.8-9.6l0.1-0.1l8.2-1.3l0,0.1c0.5,3,1,6,1.7,9.1l0,0.1L6.8,134.2
				z M4.6,121.9L4.6,121.9c-0.6-4.5-1-8.9-1.2-13l0-0.1l8.4-0.3v0.1c0.2,3.8,0.5,7.9,1.1,12.1l0,0.1L4.6,121.9z M3.3,106L3.3,106
				c0-0.6,0-1.1,0-1.8c0-4.1,0.2-7.9,0.7-11.5v-0.1l8.3,1.1l0,0.1c-0.4,3.2-0.6,6.7-0.6,10.4c0,0.6,0,1.1,0,1.6l0,0.1L3.3,106z
				 M12.7,91.4l-8.3-1.5l0-0.1c0.9-4.9,2.3-9.3,4.2-13.1l0-0.1l7.5,3.8l0,0.1C14.7,83.5,13.5,87.2,12.7,91.4L12.7,91.4z M17.3,78.4
				L17.3,78.4L10.2,74l0-0.1c2.7-4.4,6.3-7.8,10.5-10.1l0.1,0l0,0.1l4,7.3l-0.1,0C21.8,72.9,19.4,75.2,17.3,78.4h0.2H17.3z"/>
		</g>
	</g>
	<g>
		<path fill="#010101" d="M41.7,201.4l0.7,4.3h-29l1.9-4.3H41.7z M41.5,200.1l-1.1-6.5c-0.5-2.9-3-5-5.9-5h-2.7
			c-6.5,0-12.4,3.8-15.1,9.8l-0.8,1.8H41.5z"/>
	</g>
	<g>
		<g>
			<path fill="#616164" d="M68.5,194.7l-8.2-1.8l0-0.1c0.1-0.5,0.2-1,0.3-1.6v-0.1l0.1,0l8.2,1.7L68.5,194.7z M69.4,190.3l-8.3-1.6
				l0-0.1c0.8-4,1.4-8.1,1.9-12.2v-0.1l8.3,1l0,0.1C70.9,181.8,70.2,186,69.4,190.3L69.4,190.3z M71.7,174.7l-8.4-0.9l0-0.1
				c0.4-4,0.7-8.2,0.9-12.3v-0.1l8.4,0.3l0,0.1C72.5,166.1,72.2,170.4,71.7,174.7L71.7,174.7z M72.7,159l-8.4-0.2l0-0.1
				c0-1.3,0-2.6,0-4c0-2.7-0.1-5.5-0.2-8.3v-0.1l8.4-0.4v0.1c0.1,2.9,0.2,5.8,0.2,8.7C72.8,156.2,72.8,157.6,72.7,159L72.7,159z
				 M64,143.8L64,143.8c-0.3-4.1-0.6-8.2-1.2-12.3v-0.1l8.3-1.1v0.1c0.6,4.3,1,8.6,1.2,12.8v0.1L64,143.8z M62.5,128.9L62.5,128.9
				c-0.6-4.1-1.3-8.2-2.2-12.2l0-0.1h0.1l8.1-1.7l0,0.1c0.9,4.2,1.7,8.5,2.3,12.7l0,0.1L62.5,128.9z"/>
		</g>
	</g>
	<g>
		<path fill="#010101" d="M82.4,201.4l1.9,4.3h-29l0.7-4.3H82.4z M81.8,200.1l-0.8-1.8c-2.7-5.9-8.6-9.8-15.1-9.8h-2.7
			c-2.9,0-5.5,2.1-5.9,5l-1.1,6.5H81.8z"/>
	</g>
	<g>
		<path fill="#494B4E" d="M30.7,36c-0.8,0-1.4-0.6-1.4-1.4V10.1c0-0.8,0.6-1.4,1.4-1.4c0.8,0,1.4,0.6,1.4,1.4v24.5
			C32.1,35.3,31.5,36,30.7,36z"/>
	</g>
	<g>
		<path fill="#494B4E" d="M66.6,36c-0.8,0-1.4-0.6-1.4-1.4V10.1c0-0.8,0.6-1.4,1.4-1.4c0.8,0,1.4,0.6,1.4,1.4v24.5
			C68,35.3,67.4,36,66.6,36z"/>
	</g>
	<g>
		<polygon fill="#494B4E" points="34.9,44.1 27.9,42.7 27.9,33.6 34.9,32.2 		"/>
	</g>
	<g>
		<polygon fill="#494B4E" points="69.2,42.7 62.2,44.1 62.2,32.2 69.2,33.6 		"/>
	</g>
	<g>
		<path fill="#616164" d="M48.7,12L48.7,12C57.2,12,64,18.8,64,27.3V55H33.3V27.3C33.3,18.8,40.2,12,48.7,12z"/>
	</g>
	<g>
		<path fill="#95B2A3" d="M41.7,29.9v-2.2c0-3.7,2.7-6.9,6.3-7.3c4.2-0.4,7.7,2.9,7.7,7v2.6c0,2.3,1.9,4.2,4.2,4.2l0,0
			c2.3,0,4.2-1.9,4.2-4.2v-2c0-8.5-6.6-15.7-15.1-15.9c-8.6-0.2-15.7,6.8-15.7,15.4v2.6c0,2.3,1.9,4.2,4.2,4.2l0,0
			C39.8,34.1,41.7,32.2,41.7,29.9z"/>
	</g>
	<g>
		<circle fill="#FFFFFF" cx="56.9" cy="33.6" r="3.8"/>
	</g>
	<g>
		<circle fill="#FFFFFF" cx="40.3" cy="33.6" r="3.8"/>
	</g>
	<g>
		<path fill="#010101" d="M7,147.2c-3.1-1.6-5-4.8-5-8.3c0-5.1,4.2-9.3,9.3-9.3c5.1,0,9.3,4.2,9.3,9.3c0,3.2-1.6,6.2-4.4,7.9
			l-2.2-3.6c1.5-0.9,2.4-2.6,2.4-4.3c0-2.8-2.3-5.1-5.1-5.1c-2.8,0-5.1,2.3-5.1,5.1c0,1.9,1.1,3.7,2.8,4.6L7,147.2z"/>
	</g>
	<g>
		<g>
			<path fill="#616164" d="M90,134.2l-8.2-1.8l0-0.1c0.7-3,1.2-6.1,1.7-9.1l0-0.1l8.3,1.3l0,0.1C91.3,127.7,90.7,131,90,134.2
				L90,134.2z M92.2,121.9l-8.3-1.2l0-0.1l0,0c0.6-4.2,1-8.3,1.1-12.1v-0.1l8.4,0.3v0.1C93.3,113,92.8,117.3,92.2,121.9L92.2,121.9z
				 M93.5,106l-8.4-0.1v-0.1c0-0.5,0-1.1,0-1.6c0-3.7-0.2-7.2-0.7-10.4h0.1l0-0.1l8.3-1.1l0,0.1c0.5,3.6,0.7,7.4,0.7,11.5
				C93.5,104.8,93.5,105.3,93.5,106L93.5,106z M84.1,91.4L84.1,91.4c-0.8-4.2-1.9-7.8-3.5-10.9l0-0.1l7.5-3.8l0,0.1
				c1.9,3.8,3.3,8.2,4.2,13.1l0,0.1L84.1,91.4z M79.5,78.5L79.5,78.5c-2-3.2-4.4-5.6-7.5-7.2l-0.2-0.1H72l4-7.3l0.1,0
				c4.2,2.3,7.8,5.7,10.5,10.1l0,0.1L79.5,78.5z"/>
		</g>
	</g>
	<g>
		<path fill="#010101" d="M89.8,147.2l-1.9-3.7c1.7-0.9,2.8-2.6,2.8-4.6c0-2.8-2.3-5.1-5.1-5.1c-2.8,0-5.1,2.3-5.1,5.1
			c0,1.8,0.9,3.4,2.4,4.3l-2.2,3.6c-2.7-1.7-4.4-4.7-4.4-7.9c0-5.1,4.2-9.3,9.3-9.3c5.1,0,9.3,4.2,9.3,9.3
			C94.8,142.4,92.9,145.6,89.8,147.2z"/>
	</g>
	<g>
		<polygon fill="#616164" points="23.5,120.1 74.8,120.1 79,57.2 17.9,57.2 		"/>
	</g>
	<g>
		<polygon fill="#494B4E" points="49.3,57.2 49.3,120.1 67.2,120.1 70,57.2 		"/>
	</g>
	<g>
		<path fill="#95B2A3" d="M79,57.2L79,57.2H17.9l0,0.1c0.3,3.3,3.1,5.9,6.5,5.9h48.1C75.9,63.2,78.7,60.6,79,57.2z"/>
	</g>
	<g>
		<g>
			<path fill="#95B2A3" d="M61.4,80.1C61,73.3,55.5,68,48.6,68s-12.4,5.3-12.7,12.1H61.4z"/>
		</g>
		<g>
			<path fill="#861621" d="M41.7,70.7l7.8,7c0.6,0.5,0.6,1.4,0.1,2c-0.5,0.6-1.4,0.6-2,0.1c-0.1-0.1-0.2-0.2-0.2-0.3L41.7,70.7z"/>
		</g>
	</g>
</g>
</svg>
