<?xml version="1.0" encoding="utf-8"?>
<!-- Generator: Adobe Illustrator 18.1.1, SVG Export Plug-In . SVG Version: 6.00 Build 0)  -->
<svg version="1.1" id="Layer_1" xmlns="http://www.w3.org/2000/svg" xmlns:xlink="http://www.w3.org/1999/xlink" x="0px" y="0px"
	 viewBox="0 0 96.8 209.9" enable-background="new 0 0 96.8 209.9" xml:space="preserve">
<g>
	<g>
		<path fill="#5D4629" d="M8.4,139.8L8.4,139.8c-0.8-3.7-1.5-7.6-2-11.7v-0.1l5.5-0.7l0,0.1c0.5,3.9,1.2,7.7,1.9,11.2l0,0.1
			L8.4,139.8z M6.1,125.4L6.1,125.4c-0.6-5.2-1-10.4-1.1-15.5h0.1v-0.1l5.5-0.1v0.1c0.1,4.9,0.5,9.9,1,14.9v0.1L6.1,125.4z M5,107.2
			L5,107.2C5,106.9,5,106.6,5,106.3c0-5.1,0.2-10,0.7-14.6l-0.1-0.1l0.2,0l5.4,0.6l0,0.1c-0.5,4.4-0.7,9.1-0.7,14c0,0.3,0,0.6,0,0.8
			v0.1L5,107.2z M11.5,89.7l-5.5-0.8v-0.1c0.8-5.8,2-11,3.6-15.4l0-0.1l5.2,1.9l0,0C13.4,79.4,12.3,84.2,11.5,89.7L11.5,89.7z
			 M15.8,73.1l-5.1-2.2l0-0.1c2.7-6.1,6.3-10.4,10.7-12.8l0,0l2.7,4.8l0,0C20.8,64.6,18,68.1,15.8,73.1L15.8,73.1z"/>
	</g>
	<g>
		<path fill="#5D4629" d="M87.9,139.8l-5.4-1.2l0,0c0.7-3.5,1.4-7.3,1.9-11.2l0-0.1l5.5,0.7l0,0.1C89.4,132.2,88.7,136.1,87.9,139.8
			L87.9,139.8z M90.2,125.4l-5.5-0.6l0-0.1c0.6-5,0.9-10,1-14.9v-0.1l5.5,0.1v0.1C91.2,115.1,90.8,120.3,90.2,125.4L90.2,125.4z
			 M91.3,107.2l-5.5-0.1c0-0.1,0-0.3,0-0.4c0-0.1,0-0.3,0-0.4c0-5-0.2-9.7-0.7-14v-0.1l5.5-0.6v0.1c0.5,4.6,0.8,9.5,0.8,14.6
			C91.3,106.6,91.3,106.9,91.3,107.2L91.3,107.2z M84.8,89.7L84.8,89.7c-0.8-5.5-1.9-10.3-3.4-14.2l0,0l5.2-1.9l0,0
			c1.6,4.4,2.8,9.5,3.6,15.4l0,0.1L84.8,89.7z M80.5,73H80l0.4-0.1c-2.2-4.9-4.9-8.3-8.2-10.1v0l-0.1-0.1l0,0l-0.2-0.2l0.3,0.1
			l2.6-4.7l0,0c4.4,2.4,8,6.7,10.7,12.8l0,0.1l-0.1,0L80.5,73z"/>
	</g>
	<g>
		<path fill="#5D4629" d="M65.2,189.5l-5.4-1.2c5.4-25.2,5-30.5-0.4-55.8l5.4-1.2C70.3,157.2,70.8,163.3,65.2,189.5z"/>
	</g>
	<g>
		<polygon fill="#75644E" points="34.8,37.2 27.9,35.9 27.9,26.9 34.8,25.5 		"/>
	</g>
	<g>
		<polygon fill="#75644E" points="68.7,35.9 61.8,37.2 61.8,25.5 68.7,26.9 		"/>
	</g>
	<g>
		<path fill="#8E7D69" d="M78,59.8c0.2-3.2-1.9-6.1-4.9-6.9L48.2,46l-24.7,6.8c-3.1,0.9-5.2,3.8-4.9,7.1l5,37.2l10.1,15.7
			c1.1,2.4,1.8,5,2.2,7.7l1.5,11.3c0.4,3.4,3.3,5.9,6.7,5.9h8.4c3.4,0,6.3-2.5,6.7-5.9l1.4-10.7c0.4-3,1.3-5.9,2.6-8.7l11-15.2
			L78,59.8z"/>
	</g>
	<g>
		<path fill="#70604D" d="M23.4,96.2l0.1,0.9l10.1,15.7c1.1,2.4,1.8,5,2.2,7.7l1.5,11.3c0.4,3.4,3.3,5.9,6.7,5.9h8.4
			c3.4,0,6.3-2.5,6.7-5.9l1.4-10.7c0.4-3,1.3-5.9,2.6-8.7l11-15.2l0.1-0.9C57,88.4,40,88.2,23.4,96.2z"/>
	</g>
	<g>
		<path fill="#C1A88B" d="M68.2,51.6l-7.1-2v4.9H35.4v-4.9l-7.2,2c-2.5,0.7-4.2,3.1-4,5.7l0,0c0.3,1.9,1.9,3.4,3.9,3.4h40.2
			c2,0,3.7-1.5,3.9-3.5C72.4,54.7,70.7,52.3,68.2,51.6z"/>
	</g>
	<g>
		<path fill="#75644E" d="M27.1,44.6c-0.1,0-0.2,0-0.3,0c-0.7-0.2-1.2-0.9-1-1.7l3.6-15.4c0.2-0.7,0.9-1.2,1.7-1
			c0.7,0.2,1.2,0.9,1,1.7l-3.6,15.4C28.3,44.1,27.7,44.6,27.1,44.6z"/>
	</g>
	<g>
		<path fill="#75644E" d="M68.7,44.6c-0.7,0-1.3-0.5-1.4-1.2L64.8,28c-0.1-0.8,0.4-1.5,1.1-1.6c0.8-0.1,1.5,0.4,1.6,1.1L70,42.9
			c0.1,0.8-0.4,1.5-1.1,1.6C68.8,44.5,68.7,44.6,68.7,44.6z"/>
	</g>
	<g>
		<path fill="#8E7D69" d="M37.2,8.3c-1.4,12.8-2.7,26-1.4,39.7H61c1-14.4-0.3-27.8-1.4-39.7C51.1,6,45.5,5.9,37.2,8.3z"/>
	</g>
	<g>
		<path fill="#C1A88B" d="M59.6,8.4c0,0,0-0.1,0-0.1c-8.5-2.3-14.1-2.3-22.4,0c0,0,0,0,0,0.1c-0.4,3.5,2.3,6.5,5.8,6.5h10.7
			C57.2,14.8,59.9,11.8,59.6,8.4z"/>
	</g>
	<g>
		<circle fill="#F9F071" cx="55.1" cy="31" r="2.2"/>
	</g>
	<g>
		<circle fill="#F9F071" cx="41.5" cy="31" r="2.2"/>
	</g>
	<g>
		<path fill="#5D4629" d="M31.3,189.5c-5.6-26.2-5.1-32.2,0.4-58.2l5.4,1.2c-5.4,25.3-5.9,30.6-0.4,55.8L31.3,189.5z"/>
	</g>
	<g>
		<path fill="#70604D" d="M31,134.8h34.5l-0.7-3.4c-0.4-1.7-1.9-2.9-3.6-2.9H35.3c-1.7,0-3.2,1.2-3.6,2.9L31,134.8z"/>
	</g>
	<g>
		<path fill="#8E7D69" d="M59.8,188.3l5.8-0.5l3.5,12.5c0.3,0.9-0.3,1.9-1.3,2.2l-4.2,1c-1,0.3-2-0.4-2.2-1.5L59.8,188.3z"/>
	</g>
	<g>
		<path fill="#8E7D69" d="M36.7,188.3l-5.8-0.5l-3.5,12.5c-0.3,0.9,0.3,1.9,1.3,2.2l4.2,1c1,0.3,2-0.4,2.2-1.5L36.7,188.3z"/>
	</g>
	<g>
		<path fill="#F9F071" d="M48.3,80.4c-3.5,0-6.3-2.8-6.3-6.3c0-3.5,2.8-6.3,6.3-6.3c3.5,0,6.3,2.8,6.3,6.3
			C54.6,77.5,51.8,80.4,48.3,80.4z M48.3,71.9c-1.2,0-2.1,1-2.1,2.1c0,1.2,1,2.1,2.1,2.1c1.2,0,2.1-1,2.1-2.1
			C50.4,72.9,49.5,71.9,48.3,71.9z"/>
	</g>
	<g>
		<polygon fill="#8E7D69" points="7.7,135.2 13.6,138 8.5,148.4 4.2,147.1 		"/>
	</g>
	<g>
		<polygon fill="#8E7D69" points="88.7,135.2 82.8,138 88,148.4 92.2,147.1 		"/>
	</g>
</g>
</svg>
