<?xml version="1.0" encoding="utf-8"?>
<!-- Generator: Adobe Illustrator 18.1.1, SVG Export Plug-In . SVG Version: 6.00 Build 0)  -->
<svg version="1.1" id="Layer_1" xmlns="http://www.w3.org/2000/svg" xmlns:xlink="http://www.w3.org/1999/xlink" x="0px" y="0px"
	 viewBox="0 0 89.9 209.9" enable-background="new 0 0 89.9 209.9" xml:space="preserve">
<g>
	<g>
		<path fill="#727470" d="M68.8,42.1H25.4c-8.5,0-15.4,7-15.4,15.7v4l13.3,4.8l1.5,30.8l6-0.2c1.4-7.7,7.6-13.6,15.1-13.6
			c7.2,0,13.3,5.4,15,12.7l7.2-0.2l1.4-29.6l14.8-4.8v-4C84.2,49.1,77.3,42.1,68.8,42.1z"/>
	</g>
	<g>
		<path fill="#F79338" d="M23.2,66.6l1.5,30.8l6-0.2c1.4-7.7,7.6-13.6,15.1-13.6c7.2,0,13.3,5.4,15,12.7l7.2-0.2l1.4-29.6H23.2z"/>
	</g>
	<g>
		<path fill="#8B9D98" d="M71.9,57.5c7.8,0,10.2-11,3-14.2c-1.9-0.8-3.9-1.3-6.1-1.3H25.4c-2.2,0-4.2,0.5-6.1,1.3
			c-7.2,3.2-4.8,14.2,3,14.2H71.9z"/>
	</g>
	<g>
		<path fill="#727470" d="M66.9,142.7v-22H53.7l2.1,22.4c0.2,2.8,2.5,5.1,5.3,4.8c0.2,0,0.4,0,0.5,0c0,0,0,0,0.1,0
			C64.5,147.9,66.9,145.7,66.9,142.7z"/>
	</g>
	<g>
		<polygon fill="#727470" points="25.8,120.7 66.8,120.7 67.5,107.4 25.2,108.6 		"/>
	</g>
	<g>
		<path fill="#8B9D98" d="M67.2,108l0.2-0.5l-42.2,1.2l0,0c2.6,5,7.6,8.1,13.1,8.1h15.3C59.5,116.7,64.8,113.3,67.2,108z"/>
	</g>
	<g>
		<path fill="#727470" d="M37,143.1l2.1-22.4H25.8v22c0,2.9,2.4,5.2,5.3,5.1c0,0,0,0,0.1,0c0.2,0,0.4,0,0.5,0
			C34.5,148.1,36.8,145.9,37,143.1z"/>
	</g>
	<g>
		<path fill="#727470" d="M20.6,68.4c-0.3,0-12.7-3.7-12.7-3.7l0.5,37.5l0,0c4.9,0.5,9.3-3.2,9.7-8.2L20.6,68.4z"/>
	</g>
	<g>
		<path fill="#727470" d="M72,68.4L74.5,94c0.5,5,4.8,8.7,9.7,8.2l0,0l0.5-37.5C84.7,64.7,72.4,68.4,72,68.4z"/>
	</g>
	<g>
		<path fill="#727470" d="M66.9,149c-1.2,1.8-3.1,3-5.4,3c-2.2,0-4.2-1.2-5.4-3v43.3c-0.9,0.5-1.6,1.2-1.9,2.1
			c-1,2.3,0.5,5.3,3.4,7.8h16C73.2,199,66.9,149,66.9,149z"/>
	</g>
	<g>
		<path fill="#727470" d="M81.7,125.3l1.6-9.8c0.5-5-3.1-9.5-8-10l-1.9,19.8H81.7z"/>
	</g>
	<g>
		<path fill="#727470" d="M36.6,192.7V149c-1.2,1.8-3.1,3-5.4,3c-2.2,0-4.2-1.2-5.4-3c0,0-6.9,50-7.2,53.2h16
			c2.9-2.6,4.3-5.5,3.4-7.8C37.7,193.7,37.2,193.1,36.6,192.7z"/>
	</g>
	<g>
		<path fill="#4B5055" d="M56.2,191.7v0.6c-0.9,0.5-1.6,1.2-1.9,2.1c-1,2.3,0.5,5.3,3.4,7.8h16c-0.1-0.8-0.6-4.9-1.3-10.5H56.2z"/>
	</g>
	<g>
		<path fill="#4B5055" d="M36.6,192.7v-0.9H20c-0.8,5.6-1.3,9.7-1.4,10.5h16c2.9-2.6,4.3-5.5,3.4-7.8
			C37.7,193.7,37.2,193.1,36.6,192.7z"/>
	</g>
	<g>
		<path fill="#727470" d="M11,125.3h8.2l-1.9-19.8c-4.9,0.5-8.5,5-8,10L11,125.3z"/>
	</g>
	<g>
		<path fill="#4B5055" d="M50.5,105.9l-8.2,0.4l0-20.2c2.8-1.1,5.5-1.1,8.2,0V105.9z"/>
	</g>
	<g>
		<path fill="#727470" d="M23,30v13.4c0,9.7,7.7,17.5,17.2,17.5h12.4c9.5,0,17.2-7.9,17.2-17.5V30c0-4.2-3.3-7.6-7.4-7.6H30.4
			C26.3,22.4,23,25.8,23,30z"/>
	</g>
	<g>
		<path fill="#8B9D98" d="M62.3,22.4H30.4c-4.1,0-7.4,3.4-7.4,7.6l0,0c0,1.5,1.2,2.7,2.7,2.7H26c1.6,0,2.9-1.3,2.9-2.9V28h35.1v1.7
			c0,1.6,1.3,2.9,2.9,2.9h0.2c1.5,0,2.7-1.2,2.7-2.7l0,0C69.7,25.8,66.4,22.4,62.3,22.4z"/>
	</g>
	<g>
		<g>
			<path fill="#4B5055" d="M51.2,56.3c-0.7,0-1.3-0.6-1.3-1.3v-5.1c0-0.7,0.6-1.3,1.3-1.3c0.7,0,1.3,0.6,1.3,1.3V55
				C52.5,55.7,51.9,56.3,51.2,56.3z"/>
		</g>
		<g>
			<path fill="#4B5055" d="M46.3,56.3c-0.7,0-1.3-0.6-1.3-1.3v-5.1c0-0.7,0.6-1.3,1.3-1.3s1.3,0.6,1.3,1.3V55
				C47.6,55.7,47,56.3,46.3,56.3z"/>
		</g>
		<g>
			<path fill="#4B5055" d="M41.5,56.3c-0.7,0-1.3-0.6-1.3-1.3v-5.1c0-0.7,0.6-1.3,1.3-1.3c0.7,0,1.3,0.6,1.3,1.3V55
				C42.7,55.7,42.2,56.3,41.5,56.3z"/>
		</g>
	</g>
	<g>
		<ellipse fill="#FFDB89" cx="33.2" cy="38.5" rx="5.4" ry="5.5"/>
		<path fill="#4B5055" d="M33.2,45.3c-3.7,0-6.7-3.1-6.7-6.8s3-6.8,6.7-6.8c3.7,0,6.7,3.1,6.7,6.8S36.9,45.3,33.2,45.3z M33.2,34.2
			c-2.3,0-4.1,1.9-4.1,4.2c0,2.3,1.9,4.2,4.1,4.2c2.3,0,4.1-1.9,4.1-4.2C37.4,36.1,35.5,34.2,33.2,34.2z"/>
	</g>
	<g>
		<ellipse fill="#FFDB89" cx="59.4" cy="38.5" rx="5.4" ry="5.5"/>
		<path fill="#4B5055" d="M59.4,45.3c-3.7,0-6.7-3.1-6.7-6.8s3-6.8,6.7-6.8c3.7,0,6.7,3.1,6.7,6.8S63.1,45.3,59.4,45.3z M59.4,34.2
			c-2.3,0-4.1,1.9-4.1,4.2c0,2.3,1.9,4.2,4.1,4.2c2.3,0,4.1-1.9,4.1-4.2C63.5,36.1,61.7,34.2,59.4,34.2z"/>
	</g>
	<g>
		<rect x="58.7" y="9.3" fill="#4B5055" width="2.5" height="13.1"/>
	</g>
	<g>
		<ellipse fill="#4B5055" cx="60" cy="7.6" rx="2.4" ry="2.4"/>
	</g>
	<g>
		<rect x="31.4" y="9.3" fill="#4B5055" width="2.5" height="13.1"/>
	</g>
	<g>
		<ellipse fill="#4B5055" cx="32.7" cy="7.6" rx="2.4" ry="2.4"/>
	</g>
	<g>
		<path fill="#4B5055" d="M81.9,124.6c-0.1-0.2-0.2-0.4-0.3-0.7c-0.9-2.1-3.3-3.2-5.4-2.3l0,0c-2.1,0.9-3.2,3.4-2.3,5.6l0.1,0.2
			c-2.1,2.2-3.1,5.4-2.4,8.6c0.7,3.5,3.3,6.3,6.7,7.2l1.1-4.1c-2.2-0.6-3.8-2.7-3.8-5.2c0-2,1.3-3.9,3.1-4.7
			c3.1-1.3,6.4,0.6,7.1,3.7c0.4,1.8-0.2,3.6-1.4,4.9l2.9,3.1c2.3-2.3,3.3-5.6,2.6-8.8C88.9,128.1,85.6,125.2,81.9,124.6z"/>
	</g>
	<g>
		<path fill="#4B5055" d="M10.9,124.6c0.1-0.2,0.2-0.4,0.3-0.7c0.9-2.1,3.3-3.2,5.4-2.3l0,0c2.1,0.9,3.2,3.4,2.3,5.6l-0.1,0.2
			c2.1,2.2,3.1,5.4,2.4,8.6c-0.7,3.5-3.3,6.3-6.7,7.2l-1.1-4.1c2.2-0.6,3.8-2.7,3.8-5.2c0-2-1.3-3.9-3.1-4.7
			c-3.1-1.3-6.4,0.6-7.1,3.7c-0.4,1.8,0.2,3.6,1.4,4.9l-2.9,3.1c-2.3-2.3-3.3-5.6-2.6-8.8C4,128.1,7.2,125.2,10.9,124.6z"/>
	</g>
	<g>
		<g>
			<path fill="#727470" d="M49.1,80.5l-2.5-4.6h-1.5v4.6h-2.4V68.4h6.4l2,1.2v5.2l-2,1.2l2.6,4.6H49.1z M45.1,73.9h3.6v-3.4h-3.6
				V73.9z"/>
			<path fill="#727470" d="M52.3,74.9h5.4v2.2h-5.4V74.9z"/>
			<path fill="#727470" d="M61.6,72.8h3.5l2,1.2v5.5l-2,1.2h-4.3l-2-1.2V77h2.4v1.6h3.5v-3.7h-5.5v-6.5h7.7v2.1h-5.3V72.8z"/>
		</g>
	</g>
</g>
</svg>
