<?xml version="1.0" encoding="utf-8"?>
<!-- Generator: Adobe Illustrator 18.1.1, SVG Export Plug-In . SVG Version: 6.00 Build 0)  -->
<svg version="1.1" id="Layer_1" xmlns="http://www.w3.org/2000/svg" xmlns:xlink="http://www.w3.org/1999/xlink" x="0px" y="0px"
	 viewBox="0 0 175.4 209.9" enable-background="new 0 0 175.4 209.9" xml:space="preserve">
<g>
	<g>
		<path fill="#026465" d="M60.6,160.3l8.8,0.5l1.9-35.6l0,0c-4.8-0.3-9,3.5-9.2,8.3L60.6,160.3z"/>
	</g>
	<g>
		<path fill="#019798" d="M87.3,49.2c11.8,0,21.4-9.6,21.4-21.4c0-11.8-9.6-21.4-21.4-21.4c-11.8,0-21.4,9.6-21.4,21.4
			C65.9,39.6,75.5,49.2,87.3,49.2z M100.8,26l0.8,2.7c-2.8,0.9-5.6,1.8-8.4,2.7l-0.9-2.7C95.1,27.8,98,26.9,100.8,26z M87.2,38.3
			c2.2,0,4-1.8,4-4h2.8c0,3.7-3,6.8-6.8,6.8c-3.7,0-6.8-3-6.8-6.8h2.8C83.2,36.5,85,38.3,87.2,38.3z M73.8,26
			c2.8,0.9,5.7,1.8,8.5,2.8l-0.9,2.7c-2.8-1-5.6-1.9-8.4-2.7L73.8,26z"/>
	</g>
	<g>
		<path fill="#026465" d="M102.9,160.7l8.8-0.5l-1.4-26.8c-0.3-4.8-4.4-8.6-9.2-8.3l0,0L102.9,160.7z"/>
	</g>
	<g>
		<path fill="#026465" d="M142.5,120.2c-0.8,2.4,0.6,4.9,3.1,5.4c1.9,0.4,3.9-0.6,4.7-2.4l12.2-28.5l-13.6,6.8L142.5,120.2z"/>
	</g>
	<g>
		<path fill="#026465" d="M38.9,39.6l0.4-1c2.8-7.2,9.7-12,17.4-12h6.7c0,0.4-0.1,0.8-0.1,1.2c0,13.1,10.7,23.8,23.8,23.8
			c13.1,0,23.8-10.7,23.8-23.8c0-0.4,0-0.8-0.1-1.2h5.3c7.7,0,14.6,4.8,17.4,12l0.5,1.3c-11.5,1.4-21.4,6.6-27.4,14.5
			c-7.4,9.7-8.5,20.8-9.2,34.3H75.4c-0.7-13.6-1.8-24.8-9.2-34.5C60.3,46.3,50.4,41,38.9,39.6z M72.6,88.8
			C72,75.7,70.9,64.9,64,55.8c-5.6-7.4-15.1-12.3-26.1-13.5l-6.1,15.9l9.3,39.2c1.7,6.9,7.9,11.9,15,11.9h3c3.8,0,6.9-3.1,6.9-6.9
			v-3.8l3.9,6.9l8.9-5C78.9,100.4,72.6,88.8,72.6,88.8z M135.2,42.6c-11,1.2-20.6,6.1-26.2,13.5c-6.9,9.1-7.9,19.7-8.6,32.7
			c0.1,0-6.2,11.6-6.2,11.6l8.9,5l3.9-6.9v3.8c0,3.8,3.1,6.9,6.9,6.9h3c7.1,0,13.3-4.9,15-11.9l9.3-39.2L135.2,42.6z"/>
	</g>
	<g>
		<path fill="#019798" d="M109,56.1c-5.3,6.9-7.1,14.8-8,23.9l0,0c13.4,0,26.1-5.7,35-15.8l5.3-6l-6-15.7
			C124.2,43.7,114.7,48.6,109,56.1z"/>
	</g>
	<g>
		<path fill="#019798" d="M66.3,54.1c5.7,7.6,7.7,16,8.6,25.8h23.3c0.9-9.7,2.8-18,8.6-25.6c6-7.9,15.9-13.1,27.4-14.5l-0.5-1.3
			c-2.8-7.2-9.7-12-17.4-12H111c0,0.4,0.1,0.8,0.1,1.2c0,13.1-10.7,23.8-23.8,23.8c-13.1,0-23.8-10.7-23.8-23.8c0-0.4,0-0.8,0.1-1.2
			h-6.7c-7.7,0-14.6,4.8-17.4,12l-0.4,1C50.4,41,60.3,46.3,66.3,54.1z"/>
	</g>
	<g>
		<path fill="#019798" d="M72,80c-0.9-9.2-2.7-17.2-8-24.1c-5.6-7.4-15.1-12.3-26.1-13.5l-6.1,15.9l5.3,6C45.9,74.2,58.6,80,72,80
			L72,80z"/>
	</g>
	<g>
		<path fill="#010101" d="M78.9,100.4l-8.9,5l-3.8-6.8v-9.7h6.5C73.2,90,78.9,100.4,78.9,100.4z M106.9,88.9h-6.6
			c-0.5,1.1-6.2,11.5-6.2,11.5l8.9,5l3.8-6.8V88.9z"/>
	</g>
	<g>
		<polygon fill="#019798" points="148.9,94.6 160.7,88.7 143.2,61 137.2,85.6 		"/>
	</g>
	<g>
		<polygon fill="#019798" points="35.6,85.6 29.6,61 12.1,88.7 23.8,94.6 		"/>
	</g>
	<g>
		<polygon fill="#026465" points="99.7,121.8 101.4,109.5 86.5,101.4 71.6,109.5 73.3,121.8 76.2,123.3 76,132.5 97,132.5 
			96.8,123.3 		"/>
	</g>
	<g>
		<polygon fill="#019798" points="94.3,121.5 96.9,109.6 76.2,109.6 78.7,121.5 		"/>
	</g>
	<g>
		<path fill="#010101" d="M147.3,131l1.3-2.4c-4.5,0.2-7.5-1-8.1-4.6l-1.6,2.8l-5.6-1l-6.6,4.8l2.6,3.5l5.1-3.7l4,0.7l-0.2,0.1
			l2.4,4.8L137,142l3.7,2.3l4.5-7.2l1.4,2.4l-1.5,6l4.3,1l1.9-7.7l-1.2-2.1l0.9,0.3l3.1,3l3-3.2l-3.7-3.6L147.3,131z M138.5,131.3
			l0-0.1l0.1,0.1L138.5,131.3z"/>
	</g>
	<g>
		<path fill="#026465" d="M103.2,203.3h-2.8c0-6.6,6.4-10.6,17.1-10.8l-3.6-29.4h-5c-6.4,0-11.6,5.2-11.6,11.6v28.8h21.6l-1-8.2
			C114.3,195.3,103.2,196.1,103.2,203.3z"/>
	</g>
	<g>
		<path fill="#026465" d="M63.4,163.1h-5l-3.6,29.4c10.7,0.2,17.1,4.2,17.1,10.8h-2.8c0-7.1-11.1-8-14.7-8l-1,8.2H75v-28.8
			C75,168.3,69.8,163.1,63.4,163.1z"/>
	</g>
	<g>
		<g>
			<path fill="#019798" d="M69.9,175.4v2.8c0,1.4,1.1,2.6,2.6,2.6h0c1.4,0,2.6-1.1,2.6-2.6v-3.5c0-6.4-5.2-11.6-11.6-11.6h-5
				l-0.6,4.9h4.7C66.5,168,69.9,171.3,69.9,175.4z"/>
		</g>
	</g>
	<g>
		<g>
			<path fill="#019798" d="M102.4,178.2v-2.8c0-4.1,3.3-7.4,7.4-7.4h4.7l-0.6-4.9h-5c-6.4,0-11.6,5.2-11.6,11.6v3.5
				c0,1.4,1.1,2.6,2.6,2.6l0,0C101.3,180.7,102.4,179.6,102.4,178.2z"/>
		</g>
	</g>
	<g>
		<path fill="#025244" d="M27.2,125.6c2.4-0.5,3.9-3.1,3.1-5.4l-6.4-18.7l-13.6-6.8l12.2,28.5C23.3,125,25.2,126,27.2,125.6z"/>
	</g>
	<g>
		<path fill="#010101" d="M33.9,126.9l-1.6-2.8c-0.7,3.5-3.7,4.8-8.1,4.6l1.3,2.4l-6,2.3l-3.7,3.6l3,3.2l3.1-3l0.9-0.3l-1.2,2.1
			l1.9,7.7l4.3-1l-1.5-6l1.4-2.4l4.5,7.2l3.7-2.3l-3.6-5.8l2.4-4.8l-0.2-0.1l4-0.7l5.1,3.7l2.6-3.5l-6.6-4.8L33.9,126.9z
			 M34.2,131.2l0.1-0.1l0,0.1L34.2,131.2z"/>
	</g>
	<g>
		<path fill="#026465" d="M72.9,28.7L72.9,28.7c-1.6,3.1-2.9,6.7-3.7,10.7c3.8,5.9,10.4,9.9,18,9.9s14.2-3.9,18-9.8
			c-0.8-4-2-7.6-3.6-10.7c-2.8,0.9-5.6,1.8-8.4,2.7l-0.9-2.7c2.6-0.9,5.2-1.7,7.8-2.6c-3.4-5.2-7.9-8.4-12.9-8.4
			c-5,0-9.5,3.2-12.9,8.4c2.6,0.8,5.3,1.7,7.9,2.6l-0.9,2.7C78.6,30.5,75.7,29.6,72.9,28.7z M83.2,34.3c0,2.2,1.8,4,4,4
			c2.2,0,4-1.8,4-4h2.8c0,3.7-3,6.8-6.8,6.8c-3.7,0-6.8-3-6.8-6.8H83.2z"/>
	</g>
	<g>
		<g>
			<polygon fill="#010101" points="43.1,93.1 50,76.2 63.1,98.8 			"/>
		</g>
		<g>
			<polygon fill="#FDBD50" points="60.1,96.3 45.6,92.2 50.6,79.9 			"/>
		</g>
		<g>
			<polygon fill="#010101" points="51.8,90.2 53.3,90.6 52.2,84.5 50.7,84 			"/>
		</g>
		<g>
			<polygon fill="#010101" points="52.3,93 53.8,93.4 53.5,91.7 52,91.3 			"/>
		</g>
	</g>
	<g>
		<g>
			<polygon fill="#010101" points="130.3,93.1 123.4,76.2 110.3,98.8 			"/>
		</g>
		<g>
			<polygon fill="#FDBD50" points="113.3,96.3 127.8,92.2 122.8,79.9 			"/>
		</g>
		<g>
			<polygon fill="#010101" points="121.6,90.2 120.1,90.6 121.3,84.5 122.8,84 			"/>
		</g>
		<g>
			<polygon fill="#010101" points="121.1,93 119.6,93.4 119.9,91.7 121.4,91.3 			"/>
		</g>
	</g>
	<g>
		<rect x="91.7" y="54.7" fill="#026465" width="2.8" height="14.4"/>
	</g>
	<g>
		<rect x="87.8" y="54.7" fill="#026465" width="2.8" height="14.4"/>
	</g>
	<g>
		<rect x="83.9" y="54.7" fill="#026465" width="2.8" height="14.4"/>
	</g>
	<g>
		<rect x="80" y="54.7" fill="#026465" width="2.8" height="14.4"/>
	</g>
	<g>
		<rect x="89.6" y="106.2" fill="#026465" width="2.8" height="11.3"/>
	</g>
	<g>
		<rect x="85.2" y="106.2" fill="#026465" width="2.8" height="11.3"/>
	</g>
	<g>
		<rect x="80.7" y="106.2" fill="#026465" width="2.8" height="11.3"/>
	</g>
</g>
</svg>
