<?xml version="1.0" encoding="utf-8"?>
<!-- Generator: Adobe Illustrator 18.1.1, SVG Export Plug-In . SVG Version: 6.00 Build 0)  -->
<svg version="1.1" id="Layer_1" xmlns="http://www.w3.org/2000/svg" xmlns:xlink="http://www.w3.org/1999/xlink" x="0px" y="0px"
	 viewBox="0 0 104 209.9" enable-background="new 0 0 104 209.9" xml:space="preserve">
<g>
	<g>
		<path fill="#2A0B39" d="M38.4,35h-7.7c-0.8,0-1.4-0.6-1.4-1.4c0-0.8,0.6-1.4,1.4-1.4h7.7c0.8,0,1.4,0.6,1.4,1.4
			C39.8,34.4,39.2,35,38.4,35z"/>
	</g>
	<g>
		<path fill="#2A0B39" d="M74.3,35h-8.2c-0.8,0-1.4-0.6-1.4-1.4c0-0.8,0.6-1.4,1.4-1.4h8.2c0.8,0,1.4,0.6,1.4,1.4
			C75.6,34.4,75,35,74.3,35z"/>
	</g>
	<g>
		<path fill="#2A0B39" d="M51.8,15.9c-2.8,0-5.1-2.3-5.1-5.1c0-2.8,2.3-5.1,5.1-5.1c2.8,0,5.1,2.3,5.1,5.1
			C56.9,13.6,54.6,15.9,51.8,15.9z M51.8,8.4c-1.3,0-2.4,1.1-2.4,2.4c0,1.3,1.1,2.4,2.4,2.4c1.3,0,2.4-1.1,2.4-2.4
			C54.1,9.5,53.1,8.4,51.8,8.4z"/>
	</g>
	<g>
		<path fill="#2A0B39" d="M51.8,20c-0.8,0-1.4-0.6-1.4-1.4v-4.1c0-0.8,0.6-1.4,1.4-1.4c0.8,0,1.4,0.6,1.4,1.4v4.1
			C53.2,19.4,52.5,20,51.8,20z"/>
	</g>
	<g>
		<path fill="#019798" d="M42,18.4c-2.9,0-5.3,2.3-5.3,5.1c0,0,0,0,0,0.1v27.8h31V23.5c0,0,0,0,0-0.1c0-2.9-2.4-5.1-5.3-5.1H42z"/>
	</g>
	<g>
		<path fill="#1ABBB7" d="M39,30.9c1.3,0,2.3-1,2.3-2.3v-5c0-0.3,0.3-0.6,0.7-0.6h20.4c0.3,0,0.7,0.3,0.7,0.5v5.1
			c0,1.3,1,2.3,2.3,2.3l0,0c1.3,0,2.3-1,2.3-2.3v-5c0,0,0,0,0,0c0-2.8-2.3-5.1-5.1-5.1H41.9c-2.8,0-5.1,2.3-5.1,5.1c0,0,0,0,0,0v5
			C36.7,29.8,37.8,30.9,39,30.9L39,30.9z"/>
	</g>
	<g>
		<path fill="#026465" d="M59.1,33.9h-1.8c0-2.8-2.3-5.1-5.1-5.1c-2.8,0-5.1,2.3-5.1,5.1h-1.8c0-3.8,3.1-6.9,6.9-6.9
			C56,27,59.1,30.1,59.1,33.9z"/>
	</g>
	<g>
		<rect x="42.9" y="38.4" fill="#026465" width="1.8" height="13"/>
	</g>
	<g>
		<rect x="59.6" y="38.4" fill="#026465" width="1.8" height="13"/>
	</g>
	<g>
		<path fill="#2A0B39" d="M60.5,39.3c-2.6,0-4.8-2.2-4.8-4.8v-0.9h9.6v0.9C65.3,37.1,63.2,39.3,60.5,39.3z M57.7,35.4
			c0.4,1.2,1.5,2,2.8,2c1.3,0,2.4-0.9,2.8-2H57.7z"/>
	</g>
	<g>
		<path fill="#2A0B39" d="M43.8,39.3c-2.6,0-4.8-2.2-4.8-4.8v-0.9h9.6v0.9C48.6,37.1,46.4,39.3,43.8,39.3z M41,35.4
			c0.4,1.2,1.5,2,2.8,2c1.3,0,2.4-0.9,2.8-2H41z"/>
	</g>
	<g>
		<path fill="#8B59A4" d="M37.6,108.2h29c6.2,0,11.7-3.9,13.6-9.8C84.9,84,86.9,69.2,85.8,54H18.5C18,70.3,19.8,85,23.9,98.1
			C25.8,104.1,31.3,108.2,37.6,108.2z"/>
	</g>
	<g>
		<path fill="#A572B1" d="M85.8,54.2c0-0.1,0-0.1,0-0.2H18.5c0,0.5,0,1,0,1.5c0.3,8.2,7.1,14.6,15.3,14.6h36.8
			C79.2,70.2,86.4,62.9,85.8,54.2z"/>
	</g>
	<g>
		<path fill="#5C3D83" d="M29.8,95.4l0.1,0.8l9,14c1,2.2,1.6,4.5,1.9,6.8l1.3,10c0.4,3,3,5.3,6,5.3h7.5c3,0,5.6-2.2,6-5.3l1.2-9.5
			c0.4-2.7,1.1-5.3,2.4-7.7l9.8-13.6l0.1-0.8C59.7,88.4,44.6,88.2,29.8,95.4z"/>
	</g>
	<g>
		<path fill="#8B59A4" d="M36.5,132.3h30.8l-0.7-4.4c-0.3-2.2-1.6-3.7-3.2-3.7H40.4c-1.5,0-2.8,1.5-3.2,3.7L36.5,132.3z"/>
	</g>
	<g>
		<g>
			<path fill="#2A0B39" d="M33.5,101.8l1,1.6c11.6-4.5,23.4-4.5,35.3-0.1l1.1-1.5C58.4,96.8,45.8,96.9,33.5,101.8z"/>
		</g>
		<g>
			<path fill="#2A0B39" d="M40.9,117.1l0.2,1.8c7.1-1.6,14.3-1.7,21.6-0.2l0.2-1.3c0-0.2,0.1-0.3,0.1-0.5
				C55.6,115.4,48.2,115.4,40.9,117.1z"/>
		</g>
		<g>
			<path fill="#2A0B39" d="M38.4,109.2l0.6,0.9c0.1,0.3,0.2,0.5,0.3,0.8c8.4-2.3,16.9-2.3,25.5-0.2c0.1-0.3,0.3-0.7,0.5-1l0.5-0.6
				C56.5,106.7,47.4,106.7,38.4,109.2z"/>
		</g>
	</g>
	<g>
		<path fill="#5C3D83" d="M46.7,170.5c-2.1-2.8-5.4-4.4-10.1-4.6v-31.6h10.1V170.5z"/>
	</g>
	<g>
		<rect x="51.3" y="43.8" fill="#2A0B39" width="1.8" height="7.5"/>
	</g>
	<g>
		<path fill="#8B59A4" d="M52.2,73c-1,0-1.8-0.8-1.8-1.8v-7.5c0-1,0.8-1.8,1.8-1.8c1,0,1.8,0.8,1.8,1.8v7.5
			C54.1,72.2,53.3,73,52.2,73z"/>
	</g>
	<g>
		<path fill="#026465" d="M37,169h-4.2l-3,24.4c8.9,0.2,14.3,3.5,14.3,9h-2.3c0-5.9-9.2-6.6-12.2-6.7l-0.8,6.9h17.9v-24
			C46.7,173.4,42.4,169,37,169z"/>
	</g>
	<g>
		<g>
			<path fill="#019798" d="M42.4,179.3v2.3c0,1.2,1,2.1,2.1,2.1h0c1.2,0,2.1-1,2.1-2.1v-2.9c0-5.3-4.3-9.7-9.7-9.7h-4.2l-0.5,4.1
				h3.9C39.7,173.1,42.4,175.9,42.4,179.3z"/>
		</g>
	</g>
	<g>
		<path fill="#5C3D83" d="M57.2,170.5c2.1-2.8,5.4-4.4,10.1-4.6v-31.6H57.2V170.5z"/>
	</g>
	<g>
		<path fill="#026465" d="M66.8,169H71l3,24.4c-8.9,0.2-14.3,3.5-14.3,9h2.3c0-5.9,9.2-6.6,12.2-6.7l0.8,6.9H57.2v-24
			C57.2,173.4,61.5,169,66.8,169z"/>
	</g>
	<g>
		<g>
			<path fill="#019798" d="M61.4,179.3v2.3c0,1.2-1,2.1-2.1,2.1l0,0c-1.2,0-2.1-1-2.1-2.1v-2.9c0-5.3,4.3-9.7,9.7-9.7H71l0.5,4.1
				h-3.9C64.2,173.1,61.4,175.9,61.4,179.3z"/>
		</g>
	</g>
	<g>
		<g>
			<path fill="#026465" d="M87.4,54L87.4,54v19.5H101v-5.9C101,60.1,94.9,54,87.4,54z"/>
		</g>
		<g>
			<path fill="#019798" d="M92.8,55.2c-1.7-0.7-3.5-1.1-5.4-1.1v9.7H91C95.8,63.7,97.2,57.1,92.8,55.2z"/>
		</g>
		<g>
			<path fill="#5C3D83" d="M95.5,104.5l1.5-29h-9.6v28.1C91,103.4,93.9,103.5,95.5,104.5z"/>
		</g>
		<g>
			<path fill="#2A0B39" d="M92.3,143.5c2.9,0.5,4.9,3.3,4.4,6.2c-0.3,1.8-1.5,3.3-3.3,4.1l1.7,4.1c3.1-1.3,5.3-4,5.9-7.4
				c0.7-4.1-1.3-8.1-4.7-10.1c-0.1-2.5-0.1-4.9-0.1-7.2l0-0.1l-7.9-0.1l0,0.1c0,2.3-0.9,4.6-0.9,6.9c-2.9,1.3-5.1,3.9-5.7,7.3
				c-0.6,3.6,0.8,7.2,3.7,9.4l2.7-3.5c-1.6-1.2-2.4-3.2-2-5.2C86.6,144.9,89.4,143,92.3,143.5z"/>
		</g>
		<g>
			<path fill="#026465" d="M96.3,140.3l-8.9-0.5v-33.6h3c5.9,0,10.5,5.2,9.7,11.1L96.3,140.3z"/>
		</g>
		<g>
			<g>
				<path fill="#019798" d="M92.1,110.6c3.1,1.6,4.7,4.9,4.3,8.1l-0.4,2.6c-0.2,1,0.6,2,1.7,2l0,0c0.8,0,1.5-0.6,1.7-1.4l0.8-4.7
					c0.8-5.9-3.7-11.1-9.7-11.1h-3v3.7h1C89.7,109.8,91,110.1,92.1,110.6z"/>
			</g>
		</g>
	</g>
	<g>
		<g>
			<path fill="#026465" d="M16.8,54L16.8,54v19.5H3.2v-5.9C3.2,60.1,9.2,54,16.8,54z"/>
		</g>
		<g>
			<path fill="#019798" d="M11.3,55.2c1.7-0.7,3.5-1.1,5.4-1.1v9.7h-3.6C8.4,63.7,6.9,57.1,11.3,55.2z"/>
		</g>
		<g>
			<path fill="#5C3D83" d="M8.7,104.5l-1.5-29h9.6v28.1C13.2,103.4,10.2,103.5,8.7,104.5z"/>
		</g>
		<g>
			<path fill="#2A0B39" d="M11.8,143.5c-2.9,0.5-4.9,3.3-4.4,6.2c0.3,1.8,1.5,3.3,3.3,4.1L9,157.8c-3.1-1.3-5.3-4-5.9-7.4
				c-0.7-4.1,1.3-8.1,4.7-10.1c0.1-2.5,0.1-4.9,0.1-7.2l0-0.1l7.9-0.1l0,0.1c0,2.3,0.9,4.6,0.9,6.9c2.9,1.3,5.1,3.9,5.7,7.3
				c0.6,3.6-0.8,7.2-3.7,9.4L16,153c1.6-1.2,2.4-3.2,2-5.2C17.5,144.9,14.7,143,11.8,143.5z"/>
		</g>
		<g>
			<path fill="#026465" d="M7.9,140.3l8.9-0.5v-33.6h-3c-5.9,0-10.5,5.2-9.7,11.1L7.9,140.3z"/>
		</g>
		<g>
			<g>
				<path fill="#019798" d="M12,110.6c-3.1,1.6-4.7,4.9-4.3,8.1l0.4,2.6c0.2,1-0.6,2-1.7,2l0,0c-0.8,0-1.5-0.6-1.7-1.4l-0.8-4.7
					c-0.8-5.9,3.7-11.1,9.7-11.1h3v3.7h-1C14.4,109.8,13.2,110.1,12,110.6z"/>
			</g>
		</g>
	</g>
	<g>
		<g>
			<path fill="#5C3D83" d="M32.1,80.1L32.1,80.1l1.5,0.9v4.3l-2.1,1.2h-6.7V74.1h6.7l2.1,1.2v3.9L32.1,80.1z M27.3,79.1h3.8v-2.8
				h-3.8V79.1z M27.3,84.4h3.8v-3.2h-3.8V84.4z"/>
			<path fill="#5C3D83" d="M34.8,80.8h5.6V83h-5.6V80.8z"/>
			<path fill="#5C3D83" d="M43.4,86.6l-1.8-1.2V81l1.5-0.9v0l-1.5-0.9v-4l2.1-1.2h4.5l2.1,1.2v4l-1.5,0.9v0l1.5,0.9v4.4l-2.1,1.2
				H43.4z M47.8,79.1v-2.9h-3.6v2.9H47.8z M47.8,84.5v-3.3h-3.6v3.3H47.8z"/>
			<path fill="#5C3D83" d="M60.1,84.4v2.1h-8.3v-5.8l2.1-1.2h3.8v-3.3h-3.4v1.6h-2.5v-2.5l2.1-1.2h4.2l2.1,1.2v5.1l-2.1,1.2h-3.8
				v2.8H60.1z"/>
		</g>
	</g>
</g>
</svg>
