<?xml version="1.0" encoding="utf-8"?>
<!-- Generator: Adobe Illustrator 18.1.1, SVG Export Plug-In . SVG Version: 6.00 Build 0)  -->
<svg version="1.1" id="Layer_1" xmlns="http://www.w3.org/2000/svg" xmlns:xlink="http://www.w3.org/1999/xlink" x="0px" y="0px"
	 viewBox="0 0 224.6 209.9" enable-background="new 0 0 224.6 209.9" xml:space="preserve">
<g>
	<g>
		<g>
			<path fill="#496944" d="M64.4,119.1c-10.3,0-21.6-1-31.4-6.6c-14.6-8.2-23.2-26.1-20.5-42.6l10.3,1.7c-2,12.3,4.4,25.7,15.3,31.8
				c10.5,5.9,23.8,5.4,35.6,5l0.4,10.4C70.9,119,67.7,119.1,64.4,119.1z"/>
		</g>
		<g>
			<path fill="#2A0B39" d="M16.6,68.5c-4-0.3-6.9-3.8-6.6-7.7c0.2-2.5,1.6-4.7,3.8-5.8l-2.7-5.2c-4,2.1-6.6,6.1-7,10.6
				C3.7,65.9,6.9,71,11.8,73.2c0.4,3.3,0.7,6.5,1,9.7l0,0.1l10.5-0.8l0-0.1c-0.2-3.1,0.7-6.2,0.3-9.3c3.7-2.1,6.3-5.9,6.7-10.4
				c0.4-4.9-2-9.5-6.1-12.1l-3.1,5c2.3,1.4,3.6,4,3.4,6.7C24.1,65.8,20.6,68.8,16.6,68.5z"/>
		</g>
		<g>
			<path fill="#496944" d="M195.5,124.8c-0.3,0-0.6,0-1,0c-6.2-0.2-12.4-1.8-17.9-4.6c-0.9-0.4-1.7-0.9-2.6-1.4
				c-3.4-1.9-7-3.9-9.3-3l-3.7-9.7c6.8-2.6,13,0.8,18.1,3.6c0.8,0.4,1.6,0.9,2.4,1.3c4.1,2.1,8.7,3.3,13.4,3.4
				c2.8,0.1,4.9-0.3,6.3-1.1c2-1.1,3.7-3.2,3.4-10.7c-0.3-8.6-0.8-20.7-0.8-20.7l10.4-0.4c0,0,0.5,12.1,0.8,20.7
				c0.1,4.1,0.5,14.8-8.6,20.2C203.4,124,199.8,124.8,195.5,124.8z"/>
		</g>
		<g>
			<path fill="#2A0B39" d="M207.4,70c-4-0.3-6.9-3.8-6.6-7.7c0.2-2.5,1.6-4.7,3.8-5.8l-2.7-5.2c-4,2.1-6.6,6.1-7,10.6
				c-0.4,5.6,2.8,10.7,7.6,12.9c0.4,3.3,0.7,6.5,1,9.7l0,0.1l10.5-0.8l0.9-0.2c-0.2-3.1-0.3-6.2-0.6-9.2c3.7-2.1,6.3-5.9,6.7-10.4
				c0.4-4.9-2-9.5-6.1-12.1l-3.1,5c2.3,1.4,3.6,4,3.4,6.7C214.8,67.4,211.3,70.4,207.4,70z"/>
		</g>
	</g>
	<g>
		<path fill="#8B985C" d="M81.3,5.7h80.9c4.5,0,8.2,3.7,8.2,8.2v167H73.1v-167C73.1,9.3,76.7,5.7,81.3,5.7z"/>
	</g>
	<g>
		<path fill="#68804E" d="M170.4,141.9h-32.6c-3.7,0-6.7-3-6.7-6.7v-30.5h4.2v30.5c0,1.4,1.1,2.5,2.5,2.5h32.6V141.9z"/>
	</g>
	<g>
		<path fill="#68804E" d="M114,164.2H75.8V160H114c1.4,0,2.6-1.1,2.6-2.5l0.2-26.2c0-3.7,3-6.7,6.7-6.7h9.8v4.2h-9.8
			c-1.4,0-2.6,1.1-2.6,2.5l-0.2,26.2C120.7,161.2,117.7,164.2,114,164.2z"/>
	</g>
	<g>
		<path fill="#B7BB78" d="M83.5,89.6V24.5c0-4.6,3.8-8.4,8.4-8.4h59.7c4.6,0,8.4,3.8,8.4,8.4v65.1c0,2.9,2.3,5.2,5.2,5.2h0
			c2.9,0,5.2-2.3,5.2-5.2V24.5c0-10.4-8.4-18.8-18.8-18.8H91.9c-10.4,0-18.8,8.4-18.8,18.8v65.1c0,2.9,2.3,5.2,5.2,5.2l0,0
			C81.1,94.8,83.5,92.5,83.5,89.6z"/>
	</g>
	<g>
		<circle fill="#8B985C" cx="163.3" cy="45.4" r="18.2"/>
	</g>
	<g>
		<circle fill="#F9F17D" cx="163.3" cy="45.4" r="8.4"/>
	</g>
	<g>
		<circle fill="#8B985C" cx="79.3" cy="45.4" r="18.2"/>
	</g>
	<g>
		<circle fill="#F9F17D" cx="79.3" cy="45.4" r="8.4"/>
	</g>
	<g>
		<rect x="73.1" y="102.6" fill="#496944" width="97.3" height="4.2"/>
	</g>
	<g>
		<g>
			<circle fill="#496944" cx="127.4" cy="52.9" r="3"/>
		</g>
		<g>
			<circle fill="#496944" cx="115.8" cy="52.9" r="3"/>
		</g>
		<g>
			<circle fill="#496944" cx="127.4" cy="72.9" r="3"/>
		</g>
		<g>
			<circle fill="#496944" cx="115.8" cy="72.9" r="3"/>
		</g>
		<g>
			<circle fill="#496944" cx="133.2" cy="63.3" r="3"/>
		</g>
		<g>
			<circle fill="#496944" cx="109.8" cy="63.3" r="3"/>
		</g>
		<g>
			<circle fill="#496944" cx="121.6" cy="63.3" r="3"/>
		</g>
	</g>
	<g>
		<path fill="#496944" d="M85.3,143.3c-1.2,0-2.1-0.9-2.1-2.1V119c0-1.2,0.9-2.1,2.1-2.1c1.2,0,2.1,0.9,2.1,2.1v22.2
			C87.4,142.4,86.5,143.3,85.3,143.3z"/>
	</g>
	<g>
		<path fill="#496944" d="M94,143.3c-1.2,0-2.1-0.9-2.1-2.1V119c0-1.2,0.9-2.1,2.1-2.1c1.2,0,2.1,0.9,2.1,2.1v22.2
			C96.1,142.4,95.2,143.3,94,143.3z"/>
	</g>
	<g>
		<path fill="#496944" d="M102.7,143.3c-1.2,0-2.1-0.9-2.1-2.1V119c0-1.2,0.9-2.1,2.1-2.1s2.1,0.9,2.1,2.1v22.2
			C104.8,142.4,103.9,143.3,102.7,143.3z"/>
	</g>
	<g>
		<path fill="#342227" d="M58.8,174.2h14.6c1.3,0,2.3,1,2.3,2.3v24c0,1.3-1,2.3-2.3,2.3H58.8c-1.3,0-2.3-1-2.3-2.3v-24
			C56.6,175.2,57.6,174.2,58.8,174.2z"/>
	</g>
	<g>
		<path fill="#342227" d="M169.1,174.2h14.6c1.3,0,2.3,1,2.3,2.3v24c0,1.3-1,2.3-2.3,2.3h-14.6c-1.3,0-2.3-1-2.3-2.3v-24
			C166.9,175.2,167.9,174.2,169.1,174.2z"/>
	</g>
	<g>
		<path fill="#496944" d="M60.2,148h19.1v39.1H53v-31.9C53,151.2,56.2,148,60.2,148z"/>
	</g>
	<g>
		<path fill="#496944" d="M163.3,148h19.1c4,0,7.2,3.2,7.2,7.2v31.9h-26.3V148z"/>
	</g>
	<g>
		<rect x="63.1" y="21" fill="#496944" width="32.9" height="6.3"/>
	</g>
	<g>
		<rect x="146.9" y="21" fill="#496944" width="32.9" height="6.3"/>
	</g>
</g>
</svg>
