<?xml version="1.0" encoding="utf-8"?>
<!-- Generator: Adobe Illustrator 18.1.1, SVG Export Plug-In . SVG Version: 6.00 Build 0)  -->
<svg version="1.1" id="Layer_1" xmlns="http://www.w3.org/2000/svg" xmlns:xlink="http://www.w3.org/1999/xlink" x="0px" y="0px"
	 viewBox="0 0 175.4 209.9" enable-background="new 0 0 175.4 209.9" xml:space="preserve">
<g>
	<g>
		<path fill="#B8C0A4" d="M60.2,14.8v14.7c0,10.6,8.6,19.3,19.3,19.3h13.9c10.6,0,19.3-8.6,19.3-19.3V14.8c0-4.6-3.7-8.3-8.3-8.3
			H68.5C63.9,6.5,60.2,10.2,60.2,14.8z"/>
	</g>
	<g>
		<path fill="#D2E8C8" d="M104.3,6.5H68.5c-4.6,0-8.3,3.7-8.3,8.3l0,0c0,1.6,1.3,3,3,3h0.4c1.8,0,3.2-1.4,3.2-3.2v-1.9h39.3v1.9
			c0,1.8,1.4,3.2,3.2,3.2h0.3c1.6,0,3-1.3,3-3l0,0C112.6,10.2,108.9,6.5,104.3,6.5z"/>
	</g>
	<g>
		<path fill="#A69590" d="M112.8,51.9H98.1c0,6.4-5.2,11.7-11.7,11.7c-6.4,0-11.7-5.2-11.7-11.7H60c-2.8,0-5.1,2.3-5.1,5.1v32.1
			c0,4.8,3.9,8.8,8.8,8.8h45.4c4.8,0,8.8-3.9,8.8-8.8V56.9C117.9,54.1,115.6,51.9,112.8,51.9z"/>
	</g>
	<g>
		<path fill="#B8C0A4" d="M73.1,59.5H57.5c-1.4,0-2.6-1.2-2.6-2.6l0,0c0-2.8,2.3-5.1,5.1-5.1h14.8c0,1.5,0.3,2.9,0.8,4.1
			C76.2,57.7,74.9,59.5,73.1,59.5z M117.9,56.9L117.9,56.9c0-2.8-2.3-5.1-5.1-5.1H98.1c0,1.5-0.3,2.9-0.8,4.1
			c-0.6,1.7,0.6,3.5,2.4,3.5h15.6C116.7,59.5,117.9,58.4,117.9,56.9z"/>
	</g>
	<g>
		<g>
			<path fill="#57434D" d="M109.7,90.8H92.7c-0.8,0-1.4-0.6-1.4-1.4c0-0.8,0.6-1.4,1.4-1.4h16.9c0.8,0,1.4,0.6,1.4,1.4
				C111.1,90.2,110.4,90.8,109.7,90.8z"/>
		</g>
		<g>
			<path fill="#57434D" d="M109.7,85.4H92.7c-0.8,0-1.4-0.6-1.4-1.4c0-0.8,0.6-1.4,1.4-1.4h16.9c0.8,0,1.4,0.6,1.4,1.4
				C111.1,84.7,110.4,85.4,109.7,85.4z"/>
		</g>
		<g>
			<path fill="#57434D" d="M109.7,79.9H92.7c-0.8,0-1.4-0.6-1.4-1.4c0-0.8,0.6-1.4,1.4-1.4h16.9c0.8,0,1.4,0.6,1.4,1.4
				C111.1,79.3,110.4,79.9,109.7,79.9z"/>
		</g>
	</g>
	<g>
		<g>
			<path fill="#57434D" d="M80.1,90.8H63.2c-0.8,0-1.4-0.6-1.4-1.4c0-0.8,0.6-1.4,1.4-1.4h16.9c0.8,0,1.4,0.6,1.4,1.4
				C81.5,90.2,80.8,90.8,80.1,90.8z"/>
		</g>
		<g>
			<path fill="#57434D" d="M80.1,85.4H63.2c-0.8,0-1.4-0.6-1.4-1.4c0-0.8,0.6-1.4,1.4-1.4h16.9c0.8,0,1.4,0.6,1.4,1.4
				C81.5,84.7,80.8,85.4,80.1,85.4z"/>
		</g>
		<g>
			<path fill="#57434D" d="M80.1,79.9H63.2c-0.8,0-1.4-0.6-1.4-1.4c0-0.8,0.6-1.4,1.4-1.4h16.9c0.8,0,1.4,0.6,1.4,1.4
				C81.5,79.3,80.8,79.9,80.1,79.9z"/>
		</g>
	</g>
	<g>
		<g>
			<path fill="#71776B" d="M91.9,43.7c-0.8,0-1.4-0.6-1.4-1.4v-5.6c0-0.8,0.6-1.4,1.4-1.4c0.8,0,1.4,0.6,1.4,1.4v5.6
				C93.3,43,92.7,43.7,91.9,43.7z"/>
		</g>
		<g>
			<path fill="#71776B" d="M86.4,43.7c-0.8,0-1.4-0.6-1.4-1.4v-5.6c0-0.8,0.6-1.4,1.4-1.4c0.8,0,1.4,0.6,1.4,1.4v5.6
				C87.8,43,87.2,43.7,86.4,43.7z"/>
		</g>
		<g>
			<path fill="#71776B" d="M80.9,43.7c-0.8,0-1.4-0.6-1.4-1.4v-5.6c0-0.8,0.6-1.4,1.4-1.4c0.8,0,1.4,0.6,1.4,1.4v5.6
				C82.4,43,81.7,43.7,80.9,43.7z"/>
		</g>
	</g>
	<g>
		<rect x="59.6" y="131.8" fill="#B8C0A4" width="15.7" height="62.1"/>
	</g>
	<g>
		<rect x="59.6" y="160.1" fill="#A69590" width="15.7" height="33.8"/>
	</g>
	<g>
		<path fill="#010101" d="M67.5,164.6c-4.6,0-8.3-3.7-8.3-8.3s3.7-8.3,8.3-8.3c4.6,0,8.3,3.7,8.3,8.3S72,164.6,67.5,164.6z
			 M67.5,152.2c-2.2,0-4.1,1.8-4.1,4.1s1.8,4.1,4.1,4.1c2.2,0,4.1-1.8,4.1-4.1S69.7,152.2,67.5,152.2z"/>
	</g>
	<g>
		<rect x="97.5" y="131.8" fill="#B8C0A4" width="15.7" height="62.1"/>
	</g>
	<g>
		<rect x="97.5" y="160.1" fill="#A69590" width="15.7" height="33.8"/>
	</g>
	<g>
		<path fill="#010101" d="M105.4,164.6c-4.6,0-8.3-3.7-8.3-8.3s3.7-8.3,8.3-8.3c4.6,0,8.3,3.7,8.3,8.3S109.9,164.6,105.4,164.6z
			 M105.4,152.2c-2.2,0-4.1,1.8-4.1,4.1s1.8,4.1,4.1,4.1c2.2,0,4.1-1.8,4.1-4.1S107.6,152.2,105.4,152.2z"/>
	</g>
	<g>
		<path fill="#A69590" d="M63.4,101.8h45.9c2.1,0,3.9,1.7,3.9,3.9v23H59.6v-23C59.6,103.6,61.3,101.8,63.4,101.8z"/>
	</g>
	<g>
		<path fill="#010101" d="M86.4,60.3c-4.7,0-8.5-3.8-8.5-8.5h4.2c0,2.3,1.9,4.2,4.2,4.2c2.3,0,4.2-1.9,4.2-4.2h4.2
			C94.9,56.5,91.1,60.3,86.4,60.3z"/>
	</g>
	<g>
		<rect x="60.2" y="22.7" fill="#71776B" width="52.4" height="2.8"/>
	</g>
	<g>
		<circle fill="#FFDB89" cx="71.7" cy="24.1" r="6.1"/>
		<path fill="#724D43" d="M71.7,32.3c-4.5,0-8.2-3.7-8.2-8.2c0-4.5,3.7-8.2,8.2-8.2c4.5,0,8.2,3.7,8.2,8.2
			C79.9,28.6,76.2,32.3,71.7,32.3z M71.7,20.2c-2.2,0-3.9,1.8-3.9,3.9c0,2.2,1.8,3.9,3.9,3.9c2.2,0,3.9-1.8,3.9-3.9
			C75.7,22,73.9,20.2,71.7,20.2z"/>
	</g>
	<g>
		<circle fill="#FFDB89" cx="101" cy="24.1" r="6.1"/>
		<path fill="#724D43" d="M101,32.3c-4.5,0-8.2-3.7-8.2-8.2c0-4.5,3.7-8.2,8.2-8.2c4.5,0,8.2,3.7,8.2,8.2
			C109.2,28.6,105.6,32.3,101,32.3z M101,20.2c-2.2,0-3.9,1.8-3.9,3.9c0,2.2,1.8,3.9,3.9,3.9c2.2,0,3.9-1.8,3.9-3.9
			C105,22,103.2,20.2,101,20.2z"/>
	</g>
	<g>
		<path fill="#57434D" d="M97,119.4H75.8c-2.7,0-4.9-2.2-4.9-4.9v-12.6h2.8v12.6c0,1.1,0.9,2.1,2.1,2.1H97c1.1,0,2.1-0.9,2.1-2.1
			v-12.6h2.8v12.6C101.9,117.2,99.7,119.4,97,119.4z"/>
	</g>
	<g>
		<g>
			<polygon fill="#010101" points="22.7,80.1 31,86.5 20.5,86.7 			"/>
		</g>
		<g>
			<polygon fill="#010101" points="50.4,56 52.2,68.7 44,58.8 			"/>
		</g>
		<g>
			
				<rect x="29.9" y="125.6" transform="matrix(8.350348e-002 0.9965 -0.9965 8.350348e-002 161.2051 80.1285)" fill="#010101" width="14.3" height="4.2"/>
		</g>
		<g>
			
				<rect x="24.2" y="126.2" transform="matrix(8.350337e-002 0.9965 -0.9965 8.350337e-002 156.6076 86.441)" fill="#010101" width="14.3" height="4.2"/>
		</g>
		<g>
			
				<rect x="18.4" y="126.9" transform="matrix(8.349553e-002 0.9965 -0.9965 8.349553e-002 152.011 92.7552)" fill="#010101" width="14.3" height="4.2"/>
		</g>
		<g>
			
				<rect x="35.6" y="120.2" transform="matrix(0.775 0.632 -0.632 0.775 86.7097 1.0457)" fill="#010101" width="12.6" height="4.2"/>
		</g>
		<g>
			
				<rect x="30.8" y="64" transform="matrix(0.7008 0.7134 -0.7134 0.7008 64.9082 -5.2556)" fill="#B8C0A4" width="15.7" height="21.6"/>
		</g>
		<g>
			
				<rect x="13.4" y="97.8" transform="matrix(8.038525e-002 0.9968 -0.9968 8.038525e-002 132.6558 67.562)" fill="#B8C0A4" width="32.6" height="15.7"/>
		</g>
	</g>
	<g>
		<g>
			<polygon fill="#010101" points="152.2,86.7 141.7,86.5 150,80.1 			"/>
		</g>
		<g>
			<polygon fill="#010101" points="128.7,58.8 120.5,68.7 122.3,56 			"/>
		</g>
		<g>
			
				<rect x="133.5" y="120.5" transform="matrix(0.9965 8.343318e-002 -8.343318e-002 0.9965 11.1277 -10.8725)" fill="#010101" width="4.2" height="14.3"/>
		</g>
		<g>
			
				<rect x="139.3" y="121.2" transform="matrix(0.9965 8.340153e-002 -8.340153e-002 0.9965 11.198 -11.3442)" fill="#010101" width="4.2" height="14.3"/>
		</g>
		<g>
			
				<rect x="145" y="121.9" transform="matrix(0.9965 8.339888e-002 -8.339888e-002 0.9965 11.2724 -11.8195)" fill="#010101" width="4.2" height="14.3"/>
		</g>
		<g>
			
				<rect x="128.7" y="116" transform="matrix(0.6319 0.7751 -0.7751 0.6319 142.9328 -56.3649)" fill="#010101" width="4.2" height="12.6"/>
		</g>
		<g>
			
				<rect x="123.2" y="66.9" transform="matrix(0.7135 0.7007 -0.7007 0.7135 90.7658 -72.4556)" fill="#B8C0A4" width="21.6" height="15.7"/>
		</g>
		<g>
			
				<rect x="135.1" y="89.4" transform="matrix(0.9968 8.042828e-002 -8.042828e-002 0.9968 8.9623 -11.1572)" fill="#B8C0A4" width="15.7" height="32.6"/>
		</g>
	</g>
	<g>
		<rect x="93.5" y="197.4" fill="#010101" width="23.7" height="6"/>
	</g>
	<g>
		<rect x="55.6" y="197.4" fill="#010101" width="23.7" height="6"/>
	</g>
</g>
</svg>
